<svg version="1" xmlns="http://www.w3.org/2000/svg" width="128" height="128" viewBox="0 0 96.000000 96.000000"><path d="M43.4 11.9c-1.6 2.2-5.8 8.5-9.4 14l-6.5 9.9-10.6.1C8.7 36 6 36.4 5 37.5c-1.3 1.5-.6 4.8 5 25 1 3.8 2.6 9.5 3.4 12.5 2.6 9.4 1.5 9.1 35.3 8.8 29.3-.3 29.4-.3 31.1-2.6 1-1.2 4.2-11.2 7.1-22.3 4.3-15.7 5.2-20.2 4.2-21.2-.7-.7-5.4-1.4-11.9-1.7l-10.7-.5-9-13.5C49.1 6.5 47.8 5.7 43.4 11.9zm12.9 18.7c1.5 2.2 2.7 4.3 2.7 4.7 0 .4-5.2.7-11.6.7H35.9l5.3-7.8c2.9-4.2 5.7-8 6.2-8.4.9-.6 2.5 1.3 8.9 10.8zm-2.7 23.5c2.2 1.8 2.8 7.6 1 10.3-4.5 7-16.2 2.1-14.2-5.9 1.1-4.4 4.3-6.8 8.3-6.2 1.9.3 4.1 1.1 4.9 1.8z"/></svg>