<?xml version="1.0" encoding="UTF-8" standalone="no"?>
<svg
   xmlns:dc="http://purl.org/dc/elements/1.1/"
   xmlns:cc="http://creativecommons.org/ns#"
   xmlns:rdf="http://www.w3.org/1999/02/22-rdf-syntax-ns#"
   xmlns:svg="http://www.w3.org/2000/svg"
   xmlns="http://www.w3.org/2000/svg"
   xmlns:sodipodi="http://sodipodi.sourceforge.net/DTD/sodipodi-0.dtd"
   xmlns:inkscape="http://www.inkscape.org/namespaces/inkscape"
   id="AalborgStorcenterLogo"
   data-name="Layer 1"
   viewBox="0 0 653.66911 82.330005"
   version="1.1"
   sodipodi:docname="AaStorcenterPickup-w.svg"
   width="653.66913"
   height="82.330002"
   inkscape:version="0.92.3 (2405546, 2018-03-11)">
  <metadata
     id="metadata57">
    <rdf:RDF>
      <cc:Work
         rdf:about="">
        <dc:format>image/svg+xml</dc:format>
        <dc:type
           rdf:resource="http://purl.org/dc/dcmitype/StillImage" />
        <dc:title>logo</dc:title>
        <dc:title>logo</dc:title>
      </cc:Work>
    </rdf:RDF>
  </metadata>
  <sodipodi:namedview
     pagecolor="#ffffff"
     bordercolor="#666666"
     borderopacity="1"
     objecttolerance="10"
     gridtolerance="10"
     guidetolerance="10"
     inkscape:pageopacity="0"
     inkscape:pageshadow="2"
     inkscape:window-width="1920"
     inkscape:window-height="1017"
     id="namedview55"
     showgrid="false"
     inkscape:zoom="1.141961"
     inkscape:cx="291.80471"
     inkscape:cy="-90.74561"
     inkscape:window-x="-8"
     inkscape:window-y="-8"
     inkscape:window-maximized="1"
     inkscape:current-layer="AalborgStorcenterLogo"
     inkscape:measure-start="487.45,27.76"
     inkscape:measure-end="513.029,27.372"
     fit-margin-top="0"
     fit-margin-left="0"
     fit-margin-right="0"
     fit-margin-bottom="0" />
  <defs
     id="defs4">
    <style
       id="style2">.cls-1{fill:#fff;}</style>
  </defs>
  <title
     id="title6">logo</title>
  <path
     class="cls-1"
     d="m 194.47,38.51 a 11.38,11.38 0 0 1 3,-19.22 L 235.58,3.5 231.3,0 195.78,14.72 a 16.19,16.19 0 0 0 -4.23,27.35 l 19.36,16.33 4.73,-2.06 z"
     id="path8"
     style="fill:#ffffff"
     inkscape:connector-curvature="0" />
  <path
     class="cls-1"
     d="m 198.81,34.81 a 6.63,6.63 0 0 1 1.73,-11.2 l 39.55,-16.39 -3.66,-3 -38.61,16 a 10.38,10.38 0 0 0 -2.71,17.53 l 21.56,18.16 4.74,-2.06 z"
     id="path10"
     style="fill:#ffffff"
     inkscape:connector-curvature="0" />
  <path
     class="cls-1"
     d="m 202.14,29.39 43.18,-17.9 -4.35,-3.56 -40,16.6 a 5.63,5.63 0 0 0 -1.47,9.51 l 23,19.35 4.87,-2.12 -25.18,-21.2 a 0.5,0.5 0 0 1 -0.19,-0.36 0.37,0.37 0 0 1 0.14,-0.32 z"
     id="path12"
     style="fill:#ffffff"
     inkscape:connector-curvature="0" />
  <path
     class="cls-1"
     d="m 244.43,43.82 a 11.38,11.38 0 0 1 -3,19.22 l -38.11,15.79 4.28,3.5 35.52,-14.72 a 16.19,16.19 0 0 0 4.23,-27.35 l -19.4,-16.34 -4.73,2.06 z"
     id="path14"
     style="fill:#ffffff"
     inkscape:connector-curvature="0" />
  <path
     class="cls-1"
     d="m 240.09,47.52 a 6.63,6.63 0 0 1 -1.73,11.2 l -39.55,16.42 3.66,3 38.61,-16 a 10.38,10.38 0 0 0 2.71,-17.53 l -21.56,-18.16 -4.74,2.06 z"
     id="path16"
     style="fill:#ffffff"
     inkscape:connector-curvature="0" />
  <path
     class="cls-1"
     d="m 236.76,52.94 -43.18,17.9 4.35,3.56 40,-16.6 a 5.63,5.63 0 0 0 1.47,-9.51 l -23,-19.35 -4.87,2.12 25.18,21.2 a 0.5,0.5 0 0 1 0.19,0.36 0.37,0.37 0 0 1 -0.14,0.32 z"
     id="path18"
     style="fill:#ffffff"
     inkscape:connector-curvature="0" />
  <path
     class="cls-1"
     d="m 15.61,20.86 6.5,19.67 H 9.05 Z M 12.85,16.44 0,54.57 H 4.42 L 7.8,44.32 h 15.56 l 3.38,10.25 h 4.68 L 18.57,16.44 Z"
     id="path20"
     style="fill:#ffffff"
     inkscape:connector-curvature="0" />
  <path
     class="cls-1"
     d="m 50.98,54.57 -0.73,-2.91 a 11,11 0 0 1 -8,3.49 c -4.74,0 -7.91,-2.71 -7.91,-7.23 0,-4.32 1.77,-6.4 9.21,-8.84 l 4.11,-1.35 c 2.34,-0.78 2.6,-0.94 2.6,-2.65 0,-2.86 -1.2,-4.63 -5.36,-4.63 -3.23,0 -5.93,1.09 -9.16,3.49 v -4.27 a 17.82,17.82 0 0 1 9.63,-2.7 c 5.2,0 8.95,1.56 8.95,9.78 V 54.6 Z M 50.25,40.05 c -1.14,0.57 -2.24,1 -3.54,1.51 l -3.69,1.46 c -4,1.56 -4.42,3.07 -4.42,5 0,1.93 1.4,3.64 4.32,3.64 3.49,0 5.2,-1.51 7.34,-3.43 z"
     id="path22"
     style="fill:#ffffff"
     inkscape:connector-curvature="0" />
  <path
     transform="translate(0,-0.01)"
     style="fill:#ffffff"
     d="M 65.66,16.45 V 54.58 H 61.6 V 17.9 Z"
     id="polygon24" />
  <path
     class="cls-1"
     d="M 77.31,54.57 H 73.98 V 16.44 h 4.06 v 13.79 a 10.41,10.41 0 0 1 7.65,-3.28 c 8,0 10.93,7.91 10.93,14.2 0,7.08 -3.43,14 -11.08,14 -4,0 -5.88,-1.82 -7.49,-3.49 z m 0.73,-6.56 c 1.72,1.87 3.8,3.64 7,3.64 5.31,0 7.28,-5.36 7.28,-10.67 0,-5.72 -2.18,-10.56 -7.18,-10.56 -3.12,0 -5.2,1.82 -7.13,3.75 z"
     id="path26"
     style="fill:#ffffff"
     inkscape:connector-curvature="0" />
  <path
     class="cls-1"
     d="m 113.31,55.14 c -7.13,0 -11.76,-6 -11.76,-14.15 0,-8.15 4.73,-14 11.81,-14 7.08,0 11.76,5.88 11.76,14.1 0,8.43 -4.89,14.1 -11.81,14.1 m 0.05,-24.71 c -5.62,0 -7.54,5.78 -7.54,10.61 0,4.42 1.77,10.62 7.49,10.62 5.41,0 7.54,-5.36 7.54,-10.82 0,-5.72 -2.81,-10.41 -7.49,-10.41"
     id="path28"
     style="fill:#ffffff"
     inkscape:connector-curvature="0" />
  <path
     class="cls-1"
     d="m 135.11,54.57 h -4.06 V 27.52 h 4.06 v 5.1 c 1.51,-2.55 4.27,-5.67 8.38,-5.67 a 5.23,5.23 0 0 1 1.56,0.16 v 4.11 a 5,5 0 0 0 -1.82,-0.26 c -3.8,0 -8.12,3.75 -8.12,10 z"
     id="path30"
     style="fill:#ffffff"
     inkscape:connector-curvature="0" />
  <path
     class="cls-1"
     d="m 170.23,53.69 c 0,4.68 -2.45,11 -11.34,11 a 20.81,20.81 0 0 1 -9.1,-2.24 v -4.42 a 16.39,16.39 0 0 0 9.26,3.17 c 5.36,0 7.13,-4.27 7.13,-7.39 v -2.45 a 9.74,9.74 0 0 1 -7.6,3.23 c -7.65,0 -11,-7.18 -11,-13.84 0,-7.44 3.85,-13.79 11,-13.79 a 9.48,9.48 0 0 1 7.6,3.49 l 0.73,-2.91 h 3.33 z m -4.06,-19.67 c -1.2,-1.2 -3.49,-3.59 -7,-3.59 -5.36,0 -7.28,5.72 -7.28,10.46 0,4.53 1.77,10.2 7.23,10.2 3.17,0 5.15,-1.72 7.08,-3.59 z"
     id="path32"
     style="fill:#ffffff"
     inkscape:connector-curvature="0" />
  <path
     class="cls-1"
     d="m 266.46,46.72 c 2.29,1.77 6,4.68 11.55,4.68 6.66,0 8.12,-4.27 8.12,-6.71 0,-2.6 -1.51,-5.1 -8.79,-7.91 -8.43,-3.23 -10.82,-6.09 -10.82,-11 0,-6.09 4.58,-10.09 11.86,-10.09 a 16.91,16.91 0 0 1 10.09,3.17 v 5 a 14.66,14.66 0 0 0 -10.14,-4.32 c -5.26,0 -7.54,2.86 -7.54,5.77 0,3.33 2.45,4.94 8.38,7.39 6.76,2.81 11.24,5.15 11.24,11.6 0,7.6 -5.67,10.92 -12.23,10.92 a 21,21 0 0 1 -11.71,-3.54 z"
     id="path34"
     style="fill:#ffffff"
     inkscape:connector-curvature="0" />
  <path
     class="cls-1"
     d="m 298.04,30.9 h -4.58 v -3.38 h 4.58 v -8.17 l 4.06,-1.46 v 9.62 h 5.93 v 3.38 h -5.93 v 16.45 c 0,3.59 0.94,4.32 3.07,4.32 a 7.78,7.78 0 0 0 3.07,-0.62 v 3.75 a 13.22,13.22 0 0 1 -3.48,0.37 c -5.93,0 -6.71,-2.6 -6.71,-7.08 z"
     id="path36"
     style="fill:#ffffff"
     inkscape:connector-curvature="0" />
  <path
     class="cls-1"
     d="m 323.32,55.14 c -7.13,0 -11.76,-6 -11.76,-14.15 0,-8.15 4.73,-14 11.81,-14 7.08,0 11.76,5.88 11.76,14.1 0,8.43 -4.89,14.1 -11.81,14.1 m 0.05,-24.71 c -5.62,0 -7.54,5.78 -7.54,10.61 0,4.42 1.77,10.62 7.49,10.62 5.41,0 7.54,-5.36 7.54,-10.82 0,-5.72 -2.81,-10.41 -7.49,-10.41"
     id="path38"
     style="fill:#ffffff"
     inkscape:connector-curvature="0" />
  <path
     class="cls-1"
     d="m 345.43,54.57 h -4.06 V 27.52 h 4.06 v 5.1 c 1.51,-2.55 4.27,-5.67 8.38,-5.67 a 5.23,5.23 0 0 1 1.56,0.16 v 4.11 a 5,5 0 0 0 -1.82,-0.26 c -3.8,0 -8.12,3.75 -8.12,10 z"
     id="path40"
     style="fill:#ffffff"
     inkscape:connector-curvature="0" />
  <path
     class="cls-1"
     d="m 377.79,34.02 c -1.92,-1.61 -4.21,-3.59 -7.91,-3.59 -4.89,0 -8,4.42 -8,10.72 0,4.47 1.87,10.51 8.17,10.51 3.23,0 5,-1.14 8.12,-3.49 v 4.37 a 13.73,13.73 0 0 1 -8.26,2.6 c -9.47,0 -12.28,-8.17 -12.28,-14 0,-7.23 3.8,-14.15 12.23,-14.15 a 13.13,13.13 0 0 1 8,2.65 z"
     id="path42"
     style="fill:#ffffff"
     inkscape:connector-curvature="0" />
  <path
     class="cls-1"
     d="m 387.15,41.57 c 0.16,4.84 2.08,10.09 8.33,10.09 3.69,0 5.83,-1.51 8.53,-3.38 v 4.21 a 14.88,14.88 0 0 1 -8.59,2.65 c -10.4,0 -12.54,-8.58 -12.54,-14 0,-8.64 4.58,-14.15 11.65,-14.15 5.83,0 10.72,3.9 10.87,14.62 z m 13.94,-3.43 c -0.36,-3.33 -2.08,-7.75 -6.61,-7.75 -4.53,0 -6.87,4.42 -7.23,7.75 z"
     id="path44"
     style="fill:#ffffff"
     inkscape:connector-curvature="0" />
  <path
     class="cls-1"
     d="M 428.04,54.57 V 36.62 c 0,-3.49 -0.78,-5.93 -3.85,-5.93 -2.91,0 -5,1.2 -8.9,3.7 v 20.19 h -4.06 V 27.52 h 4.06 v 3.43 c 3.69,-2.65 6.45,-4 9.68,-4 4.58,0 7.13,3.23 7.13,9 v 18.62 z"
     id="path46"
     style="fill:#ffffff"
     inkscape:connector-curvature="0" />
  <path
     class="cls-1"
     d="m 441.2,30.9 h -4.58 v -3.38 h 4.58 v -8.17 l 4.06,-1.46 v 9.62 h 5.93 v 3.38 h -5.93 v 16.45 c 0,3.59 0.94,4.32 3.07,4.32 a 7.78,7.78 0 0 0 3.07,-0.62 v 3.75 a 13.24,13.24 0 0 1 -3.49,0.35 c -5.93,0 -6.71,-2.6 -6.71,-7.08 z"
     id="path48"
     style="fill:#ffffff"
     inkscape:connector-curvature="0" />
  <path
     class="cls-1"
     d="m 458.99,41.57 c 0.16,4.84 2.08,10.09 8.33,10.09 3.69,0 5.82,-1.51 8.53,-3.38 v 4.21 a 14.87,14.87 0 0 1 -8.59,2.65 c -10.4,0 -12.54,-8.58 -12.54,-14 0,-8.64 4.58,-14.15 11.65,-14.15 5.83,0 10.72,3.9 10.87,14.62 z m 13.92,-3.43 c -0.36,-3.33 -2.08,-7.75 -6.61,-7.75 -4.53,0 -6.87,4.42 -7.23,7.75 z"
     id="path50"
     style="fill:#ffffff"
     inkscape:connector-curvature="0" />
  <path
     class="cls-1"
     d="m 487.45,54.57 h -4.06 V 27.52 h 4.06 v 5.1 c 1.51,-2.55 4.27,-5.67 8.37,-5.67 a 5.24,5.24 0 0 1 1.56,0.16 v 4.11 a 5,5 0 0 0 -1.82,-0.26 c -3.8,0 -8.12,3.75 -8.12,10 z"
     id="path52"
     style="fill:#ffffff"
     inkscape:connector-curvature="0" />
  <g
     aria-label="Pickup"
     transform="matrix(0.94586195,0,0,1,25.882788,-0.01034324)"
     style="font-style:normal;font-variant:normal;font-weight:normal;font-stretch:normal;font-size:48px;line-height:1.25;font-family:sans-serif;-inkscape-font-specification:'sans-serif, Normal';font-variant-ligatures:normal;font-variant-caps:normal;font-variant-numeric:normal;font-feature-settings:normal;text-align:start;letter-spacing:0px;word-spacing:0px;writing-mode:lr-tb;text-anchor:start;fill:#ffffff;fill-opacity:1;stroke:none"
     id="flowRoot3762">
    <path
       d="m 537.85937,30.305527 q 0,2.320313 -0.82031,4.3125 -0.79687,1.96875 -2.25,3.421875 -1.80469,1.804688 -4.26562,2.71875 -2.46094,0.890625 -6.21094,0.890625 h -4.64063 V 54.65709 h -4.64062 V 19.758652 H 524.5 q 3.14062,0 5.32031,0.539063 2.17969,0.515625 3.86719,1.640625 1.99219,1.335937 3.07031,3.328125 1.10156,1.992187 1.10156,5.039062 z m -4.82812,0.117188 q 0,-1.804688 -0.63281,-3.140625 -0.63282,-1.335938 -1.92188,-2.179688 -1.125,-0.726562 -2.57812,-1.03125 -1.42969,-0.328125 -3.63282,-0.328125 h -4.59375 V 37.68834 h 3.91407 q 2.8125,0 4.57031,-0.492188 1.75781,-0.515625 2.85937,-1.617187 1.10157,-1.125 1.54688,-2.367188 0.46875,-1.242187 0.46875,-2.789062 z"
       style="fill:#ffffff"
       id="path3787" />
    <path
       d="m 548.38281,24.09459 h -4.96875 v -4.570313 h 4.96875 z m -0.28125,30.5625 h -4.40625 V 28.477402 h 4.40625 z"
       style="fill:#ffffff"
       id="path3789" />
    <path
       d="m 576.22656,53.016465 q -2.20312,1.054687 -4.19531,1.640625 -1.96875,0.585937 -4.19531,0.585937 -2.83594,0 -5.20313,-0.820312 -2.36719,-0.84375 -4.05469,-2.53125 -1.71093,-1.6875 -2.64843,-4.265625 -0.9375,-2.578125 -0.9375,-6.023438 0,-6.421875 3.51562,-10.078125 3.53906,-3.65625 9.32813,-3.65625 2.25,0 4.40625,0.632813 2.17968,0.632812 3.98437,1.546875 v 4.898437 h -0.23437 q -2.01563,-1.570312 -4.17188,-2.414062 -2.13281,-0.84375 -4.17187,-0.84375 -3.75,0 -5.92969,2.53125 -2.15625,2.507812 -2.15625,7.382812 0,4.734375 2.10937,7.289063 2.13282,2.53125 5.97657,2.53125 1.33593,0 2.71875,-0.351563 1.38281,-0.351562 2.48437,-0.914062 0.96094,-0.492188 1.80469,-1.03125 0.84375,-0.5625 1.33594,-0.960938 h 0.23437 z"
       style="fill:#ffffff"
       id="path3791" />
    <path
       d="m 605.66406,54.65709 h -5.8125 l -10.5,-11.460938 -2.85937,2.71875 v 8.742188 h -4.40625 V 18.18834 h 4.40625 v 23.390625 l 12.72656,-13.101563 h 5.55469 l -12.16407,12.09375 z"
       style="fill:#ffffff"
       id="path3793" />
    <path
       d="m 632.00781,54.65709 h -4.40625 v -2.90625 q -2.22656,1.757812 -4.26562,2.695312 -2.03907,0.9375 -4.5,0.9375 -4.125,0 -6.42188,-2.507812 -2.29687,-2.53125 -2.29687,-7.40625 V 28.477402 h 4.40625 v 14.90625 q 0,1.992188 0.1875,3.421875 0.1875,1.40625 0.79687,2.414063 0.63281,1.03125 1.64063,1.5 1.00781,0.46875 2.92968,0.46875 1.71094,0 3.72657,-0.890625 2.03906,-0.890625 3.79687,-2.273438 V 28.477402 h 4.40625 z"
       style="fill:#ffffff"
       id="path3795" />
    <path
       d="m 663.71875,41.25084 q 0,3.1875 -0.91406,5.835937 -0.91407,2.625 -2.57813,4.453125 -1.54687,1.734375 -3.65625,2.695313 -2.08594,0.9375 -4.42969,0.9375 -2.03906,0 -3.70312,-0.445313 -1.64063,-0.445312 -3.35156,-1.382812 v 10.96875 h -4.40625 V 28.477402 h 4.40625 v 2.742188 q 1.75781,-1.476563 3.9375,-2.460938 2.20312,-1.007812 4.6875,-1.007812 4.73437,0 7.35937,3.585937 2.64844,3.5625 2.64844,9.914063 z m -4.54688,0.117187 q 0,-4.734375 -1.61718,-7.078125 -1.61719,-2.34375 -4.96875,-2.34375 -1.89844,0 -3.82032,0.820313 -1.92187,0.820312 -3.67968,2.15625 v 14.835937 q 1.875,0.84375 3.21093,1.148438 1.35938,0.304687 3.07032,0.304687 3.67968,0 5.74218,-2.484375 2.0625,-2.484375 2.0625,-7.359375 z"
       style="fill:#ffffff"
       id="path3797" />
  </g>
</svg>
